solid Onshape
  facet normal -5.70975e-8 -0.819152 0.573577
    outer loop
      vertex 3 -206.874 18.9442
      vertex 83.4 -203.69 23.4921
      vertex 1.40252 -205.277 21.2256
    endloop
  endfacet
  facet normal 0 -0.819153 0.573576
    outer loop
      vertex 83.4 -203.69 23.4921
      vertex 3 -203.69 23.4921
      vertex 1.40252 -205.277 21.2256
    endloop
  endfacet
  facet normal -0.000354871 -0.819035 0.573743
    outer loop
      vertex 1.40252 -205.277 21.2256
      vertex 3 -203.69 23.4921
      vertex 3 -203.679 23.5071
    endloop
  endfacet
  facet normal 0 -0.819152 0.573576
    outer loop
      vertex 3 -206.874 18.9442
      vertex 83.4 -206.874 18.9442
      vertex 83.4 -203.69 23.4921
    endloop
  endfacet
  facet normal 1.49866e-6 -0.819152 0.573576
    outer loop
      vertex 83.4 -206.874 18.9442
      vertex 84.9975 -205.277 21.2256
      vertex 83.4 -203.69 23.4921
    endloop
  endfacet
  facet normal 0.000354872 -0.819035 0.573743
    outer loop
      vertex 83.4 -203.69 23.4921
      vertex 84.9975 -205.277 21.2256
      vertex 83.4 -203.679 23.5071
    endloop
  endfacet
  facet normal 0 0.707106 -0.707108
    outer loop
      vertex 3 -146.755 -2.6558
      vertex 3 -143.755 0.344201
      vertex 83.4 -146.755 -2.6558
    endloop
  endfacet
  facet normal 0 0.707106 -0.707108
    outer loop
      vertex 3 -143.755 0.344201
      vertex 83.4 -143.755 0.344201
      vertex 83.4 -146.755 -2.6558
    endloop
  endfacet
  facet normal 0.577351 0.577349 -0.577351
    outer loop
      vertex 86.4 -146.755 0.344201
      vertex 83.4 -146.755 -2.6558
      vertex 83.4 -143.755 0.344201
    endloop
  endfacet
  facet normal 0.707107 0 -0.707107
    outer loop
      vertex 83.4 -146.755 -2.6558
      vertex 86.4 -146.755 0.344201
      vertex 83.4 -203.874 -2.6558
    endloop
  endfacet
  facet normal 0.707107 0 -0.707107
    outer loop
      vertex 86.4 -146.755 0.344201
      vertex 86.4 -203.874 0.344201
      vertex 83.4 -203.874 -2.6558
    endloop
  endfacet
  facet normal 0.577351 -0.577349 -0.577351
    outer loop
      vertex 83.4 -206.874 0.344201
      vertex 83.4 -203.874 -2.6558
      vertex 86.4 -203.874 0.344201
    endloop
  endfacet
  facet normal 0 -0.707106 -0.707108
    outer loop
      vertex 3 -206.874 0.344201
      vertex 3 -203.874 -2.6558
      vertex 83.4 -206.874 0.344201
    endloop
  endfacet
  facet normal 0 -0.707106 -0.707108
    outer loop
      vertex 3 -203.874 -2.6558
      vertex 83.4 -203.874 -2.6558
      vertex 83.4 -206.874 0.344201
    endloop
  endfacet
  facet normal -0.707108 -0.707106 -7.60742e-7
    outer loop
      vertex 1.40252 -205.277 21.2256
      vertex 0 -203.874 20.2436
      vertex 3 -206.874 18.9442
    endloop
  endfacet
  facet normal -0.707107 -0.707106 0
    outer loop
      vertex 0 -203.874 20.2436
      vertex 0 -203.874 0.344201
      vertex 3 -206.874 18.9442
    endloop
  endfacet
  facet normal -0.707107 -0.707106 0
    outer loop
      vertex 3 -206.874 18.9442
      vertex 0 -203.874 0.344201
      vertex 3 -206.874 0.344201
    endloop
  endfacet
  facet normal 0.000255856 0.573405 0.819272
    outer loop
      vertex 83.4 -146.928 44.1399
      vertex 83.4 -146.95 44.1549
      vertex 84.9975 -145.352 43.0363
    endloop
  endfacet
  facet normal 2.66875e-6 0.573577 0.819152
    outer loop
      vertex 84.9975 -145.352 43.0363
      vertex 83.4 -143.755 41.9177
      vertex 83.4 -146.928 44.1399
    endloop
  endfacet
  facet normal 0 0.573577 0.819152
    outer loop
      vertex 83.4 -143.755 41.9177
      vertex 3 -143.755 41.9177
      vertex 83.4 -146.928 44.1399
    endloop
  endfacet
  facet normal 0 0.573577 0.819152
    outer loop
      vertex 83.4 -146.928 44.1399
      vertex 3 -143.755 41.9177
      vertex 3 -146.928 44.1399
    endloop
  endfacet
  facet normal -2.66874e-6 0.573577 0.819152
    outer loop
      vertex 3 -143.755 41.9177
      vertex 1.40252 -145.352 43.0363
      vertex 3 -146.928 44.1399
    endloop
  endfacet
  facet normal -0.000255855 0.573405 0.819272
    outer loop
      vertex 3 -146.928 44.1399
      vertex 1.40252 -145.352 43.0363
      vertex 3 -146.95 44.1549
    endloop
  endfacet
  facet normal 0.707108 -0.707106 0
    outer loop
      vertex 83.4 -206.874 0.344201
      vertex 86.4 -203.874 0.344201
      vertex 83.4 -206.874 18.9442
    endloop
  endfacet
  facet normal 0.707108 -0.707106 0
    outer loop
      vertex 86.4 -203.874 0.344201
      vertex 86.4 -203.874 20.2436
      vertex 83.4 -206.874 18.9442
    endloop
  endfacet
  facet normal 0.707107 -0.707106 1.54952e-6
    outer loop
      vertex 83.4 -206.874 18.9442
      vertex 86.4 -203.874 20.2436
      vertex 84.9975 -205.277 21.2256
    endloop
  endfacet
  facet normal 0 -0.342021 0.939692
    outer loop
      vertex 80.4 -149.755 38.8772
      vertex 83.4 -145.568 40.4012
      vertex 6 -149.755 38.8772
    endloop
  endfacet
  facet normal 0 -0.342021 0.939692
    outer loop
      vertex 83.4 -145.568 40.4012
      vertex 3 -145.568 40.4012
      vertex 6 -149.755 38.8772
    endloop
  endfacet
  facet normal 8.6273e-7 -0.34202 0.939693
    outer loop
      vertex 6 -149.755 38.8772
      vertex 3 -145.568 40.4012
      vertex 6 -200.874 20.2713
    endloop
  endfacet
  facet normal 4.82691e-7 -0.34202 0.939693
    outer loop
      vertex 3 -145.568 40.4012
      vertex 3 -202.325 19.7432
      vertex 6 -200.874 20.2713
    endloop
  endfacet
  facet normal 0 -0.342019 0.939693
    outer loop
      vertex 6 -200.874 20.2713
      vertex 3 -202.325 19.7432
      vertex 80.4 -200.874 20.2713
    endloop
  endfacet
  facet normal 0 -0.342019 0.939693
    outer loop
      vertex 3 -202.325 19.7432
      vertex 83.4 -202.325 19.7432
      vertex 80.4 -200.874 20.2713
    endloop
  endfacet
  facet normal -4.7272e-7 -0.34202 0.939693
    outer loop
      vertex 80.4 -200.874 20.2713
      vertex 83.4 -202.325 19.7432
      vertex 80.4 -149.755 38.8772
    endloop
  endfacet
  facet normal -8.33957e-7 -0.34202 0.939693
    outer loop
      vertex 83.4 -202.325 19.7432
      vertex 83.4 -145.568 40.4012
      vertex 80.4 -149.755 38.8772
    endloop
  endfacet
  facet normal 0 1 0
    outer loop
      vertex 83.4 -143.755 41.9177
      vertex 83.4 -143.755 0.344201
      vertex 3 -143.755 41.9177
    endloop
  endfacet
  facet normal 0 1 0
    outer loop
      vertex 83.4 -143.755 0.344201
      vertex 3 -143.755 0.344201
      vertex 3 -143.755 41.9177
    endloop
  endfacet
  facet normal 0 -1 0
    outer loop
      vertex 3 -206.874 18.9442
      vertex 3 -206.874 0.344201
      vertex 83.4 -206.874 18.9442
    endloop
  endfacet
  facet normal 0 -1 0
    outer loop
      vertex 3 -206.874 0.344201
      vertex 83.4 -206.874 0.344201
      vertex 83.4 -206.874 18.9442
    endloop
  endfacet
  facet normal -0.707107 0 -0.707107
    outer loop
      vertex 0 -146.755 0.344201
      vertex 3 -146.755 -2.6558
      vertex 0 -203.874 0.344201
    endloop
  endfacet
  facet normal -0.707107 0 -0.707107
    outer loop
      vertex 3 -146.755 -2.6558
      vertex 3 -203.874 -2.6558
      vertex 0 -203.874 0.344201
    endloop
  endfacet
  facet normal 0.707108 0.707106 0
    outer loop
      vertex 86.4 -146.755 0.344201
      vertex 83.4 -143.755 0.344201
      vertex 86.4 -146.755 41.0333
    endloop
  endfacet
  facet normal 0.707108 0.707106 0
    outer loop
      vertex 83.4 -143.755 0.344201
      vertex 83.4 -143.755 41.9177
      vertex 86.4 -146.755 41.0333
    endloop
  endfacet
  facet normal 0.707108 0.707106 1.54952e-6
    outer loop
      vertex 86.4 -146.755 41.0333
      vertex 83.4 -143.755 41.9177
      vertex 84.9975 -145.352 43.0363
    endloop
  endfacet
  facet normal 0 -1 0
    outer loop
      vertex 6 -149.755 38.8772
      vertex 6 -149.755 -2.6558
      vertex 80.4 -149.755 38.8772
    endloop
  endfacet
  facet normal 0 -1 0
    outer loop
      vertex 6 -149.755 -2.6558
      vertex 80.4 -149.755 -2.6558
      vertex 80.4 -149.755 38.8772
    endloop
  endfacet
  facet normal 0.707107 -0.241842 0.664463
    outer loop
      vertex 84.9975 -145.352 43.0363
      vertex 83.4 -146.95 44.1549
      vertex 86.4 -146.755 41.0333
    endloop
  endfacet
  facet normal 0.707107 -0.241845 0.664463
    outer loop
      vertex 83.4 -146.95 44.1549
      vertex 83.4 -203.679 23.5071
      vertex 86.4 -146.755 41.0333
    endloop
  endfacet
  facet normal 0.707107 -0.241845 0.664463
    outer loop
      vertex 86.4 -146.755 41.0333
      vertex 83.4 -203.679 23.5071
      vertex 86.4 -203.874 20.2436
    endloop
  endfacet
  facet normal 0.707107 -0.241846 0.664462
    outer loop
      vertex 83.4 -203.679 23.5071
      vertex 84.9975 -205.277 21.2256
      vertex 86.4 -203.874 20.2436
    endloop
  endfacet
  facet normal 0 0 -1
    outer loop
      vertex 86.4 -163.505 15.3442
      vertex 86.4 -173.505 15.3442
      vertex 80.4 -163.505 15.3442
    endloop
  endfacet
  facet normal 0 0 -1
    outer loop
      vertex 86.4 -173.505 15.3442
      vertex 80.4 -173.505 15.3442
      vertex 80.4 -163.505 15.3442
    endloop
  endfacet
  facet normal -1 0 0
    outer loop
      vertex 80.4 -149.755 38.8772
      vertex 80.4 -163.505 15.3442
      vertex 80.4 -173.505 15.3442
    endloop
  endfacet
  facet normal -1 0 0
    outer loop
      vertex 80.4 -163.505 15.3442
      vertex 80.4 -149.755 38.8772
      vertex 80.4 -163.505 8.3442
    endloop
  endfacet
  facet normal -1 0 0
    outer loop
      vertex 80.4 -149.755 38.8772
      vertex 80.4 -149.755 -2.6558
      vertex 80.4 -163.505 8.3442
    endloop
  endfacet
  facet normal -1 0 0
    outer loop
      vertex 80.4 -163.505 8.3442
      vertex 80.4 -149.755 -2.6558
      vertex 80.4 -173.505 8.3442
    endloop
  endfacet
  facet normal -1 0 0
    outer loop
      vertex 80.4 -149.755 -2.6558
      vertex 80.4 -200.874 -2.6558
      vertex 80.4 -173.505 8.3442
    endloop
  endfacet
  facet normal -1 0 0
    outer loop
      vertex 80.4 -173.505 8.3442
      vertex 80.4 -200.874 -2.6558
      vertex 80.4 -173.505 15.3442
    endloop
  endfacet
  facet normal -1 0 0
    outer loop
      vertex 80.4 -200.874 -2.6558
      vertex 80.4 -200.874 20.2713
      vertex 80.4 -173.505 15.3442
    endloop
  endfacet
  facet normal -1 0 0
    outer loop
      vertex 80.4 -173.505 15.3442
      vertex 80.4 -200.874 20.2713
      vertex 80.4 -149.755 38.8772
    endloop
  endfacet
  facet normal 0 0 -1
    outer loop
      vertex 80.4 -200.874 -2.6558
      vertex 83.4 -203.874 -2.6558
      vertex 6 -200.874 -2.6558
    endloop
  endfacet
  facet normal 0 0 -1
    outer loop
      vertex 83.4 -203.874 -2.6558
      vertex 3 -203.874 -2.6558
      vertex 6 -200.874 -2.6558
    endloop
  endfacet
  facet normal 0 0 -1
    outer loop
      vertex 6 -200.874 -2.6558
      vertex 3 -203.874 -2.6558
      vertex 6 -149.755 -2.6558
    endloop
  endfacet
  facet normal 0 0 -1
    outer loop
      vertex 3 -203.874 -2.6558
      vertex 3 -146.755 -2.6558
      vertex 6 -149.755 -2.6558
    endloop
  endfacet
  facet normal 0 0 -1
    outer loop
      vertex 6 -149.755 -2.6558
      vertex 3 -146.755 -2.6558
      vertex 80.4 -149.755 -2.6558
    endloop
  endfacet
  facet normal 0 0 -1
    outer loop
      vertex 3 -146.755 -2.6558
      vertex 83.4 -146.755 -2.6558
      vertex 80.4 -149.755 -2.6558
    endloop
  endfacet
  facet normal 0 0 -1
    outer loop
      vertex 80.4 -149.755 -2.6558
      vertex 83.4 -146.755 -2.6558
      vertex 80.4 -200.874 -2.6558
    endloop
  endfacet
  facet normal 0 0 -1
    outer loop
      vertex 83.4 -146.755 -2.6558
      vertex 83.4 -203.874 -2.6558
      vertex 80.4 -200.874 -2.6558
    endloop
  endfacet
  facet normal 0 0.939693 0.342019
    outer loop
      vertex 83.4 -203.69 23.4921
      vertex 83.4 -202.325 19.7432
      vertex 3 -203.69 23.4921
    endloop
  endfacet
  facet normal 0 0.939693 0.342019
    outer loop
      vertex 83.4 -202.325 19.7432
      vertex 3 -202.325 19.7432
      vertex 3 -203.69 23.4921
    endloop
  endfacet
  facet normal 1 0 0
    outer loop
      vertex 6 -200.874 20.2713
      vertex 6 -200.874 -2.6558
      vertex 6 -149.755 38.8772
    endloop
  endfacet
  facet normal 1 0 0
    outer loop
      vertex 6 -200.874 -2.6558
      vertex 6 -149.755 -2.6558
      vertex 6 -149.755 38.8772
    endloop
  endfacet
  facet normal 0 1 0
    outer loop
      vertex 80.4 -200.874 20.2713
      vertex 80.4 -200.874 -2.6558
      vertex 6 -200.874 20.2713
    endloop
  endfacet
  facet normal 0 1 0
    outer loop
      vertex 80.4 -200.874 -2.6558
      vertex 6 -200.874 -2.6558
      vertex 6 -200.874 20.2713
    endloop
  endfacet
  facet normal -1 0 0
    outer loop
      vertex 0 -203.874 0.344201
      vertex 0 -203.874 20.2436
      vertex 0 -146.755 0.344201
    endloop
  endfacet
  facet normal -1 0 0
    outer loop
      vertex 0 -203.874 20.2436
      vertex 0 -146.755 41.0333
      vertex 0 -146.755 0.344201
    endloop
  endfacet
  facet normal -0.707107 0.707106 -7.60743e-7
    outer loop
      vertex 1.40252 -145.352 43.0363
      vertex 3 -143.755 41.9177
      vertex 0 -146.755 41.0333
    endloop
  endfacet
  facet normal -0.707107 0.707106 0
    outer loop
      vertex 3 -143.755 41.9177
      vertex 3 -143.755 0.344201
      vertex 0 -146.755 41.0333
    endloop
  endfacet
  facet normal -0.707107 0.707106 0
    outer loop
      vertex 0 -146.755 41.0333
      vertex 3 -143.755 0.344201
      vertex 0 -146.755 0.344201
    endloop
  endfacet
  facet normal -0.577351 -0.577349 -0.577351
    outer loop
      vertex 3 -206.874 0.344201
      vertex 0 -203.874 0.344201
      vertex 3 -203.874 -2.6558
    endloop
  endfacet
  facet normal -0.707107 -0.241844 0.664463
    outer loop
      vertex 3 -146.95 44.1549
      vertex 1.40252 -145.352 43.0363
      vertex 0 -146.755 41.0333
    endloop
  endfacet
  facet normal -0.707107 -0.241845 0.664463
    outer loop
      vertex 3 -146.95 44.1549
      vertex 0 -146.755 41.0333
      vertex 3 -203.679 23.5071
    endloop
  endfacet
  facet normal -0.707107 -0.241845 0.664463
    outer loop
      vertex 0 -146.755 41.0333
      vertex 0 -203.874 20.2436
      vertex 3 -203.679 23.5071
    endloop
  endfacet
  facet normal -0.707107 -0.241844 0.664463
    outer loop
      vertex 3 -203.679 23.5071
      vertex 0 -203.874 20.2436
      vertex 1.40252 -205.277 21.2256
    endloop
  endfacet
  facet normal 0 -1 0
    outer loop
      vertex 86.4 -163.505 8.3442
      vertex 86.4 -163.505 15.3442
      vertex 80.4 -163.505 8.3442
    endloop
  endfacet
  facet normal 0 -1 0
    outer loop
      vertex 86.4 -163.505 15.3442
      vertex 80.4 -163.505 15.3442
      vertex 80.4 -163.505 8.3442
    endloop
  endfacet
  facet normal 1 0 0
    outer loop
      vertex 86.4 -146.755 0.344201
      vertex 86.4 -163.505 8.3442
      vertex 86.4 -173.505 8.3442
    endloop
  endfacet
  facet normal 1 0 0
    outer loop
      vertex 86.4 -163.505 8.3442
      vertex 86.4 -146.755 0.344201
      vertex 86.4 -163.505 15.3442
    endloop
  endfacet
  facet normal 1 0 0
    outer loop
      vertex 86.4 -146.755 0.344201
      vertex 86.4 -146.755 41.0333
      vertex 86.4 -163.505 15.3442
    endloop
  endfacet
  facet normal 1 0 0
    outer loop
      vertex 86.4 -163.505 15.3442
      vertex 86.4 -146.755 41.0333
      vertex 86.4 -173.505 15.3442
    endloop
  endfacet
  facet normal 1 0 0
    outer loop
      vertex 86.4 -146.755 41.0333
      vertex 86.4 -203.874 20.2436
      vertex 86.4 -173.505 15.3442
    endloop
  endfacet
  facet normal 1 0 0
    outer loop
      vertex 86.4 -173.505 15.3442
      vertex 86.4 -203.874 20.2436
      vertex 86.4 -173.505 8.3442
    endloop
  endfacet
  facet normal 1 0 0
    outer loop
      vertex 86.4 -203.874 20.2436
      vertex 86.4 -203.874 0.344201
      vertex 86.4 -173.505 8.3442
    endloop
  endfacet
  facet normal 1 0 0
    outer loop
      vertex 86.4 -173.505 8.3442
      vertex 86.4 -203.874 0.344201
      vertex 86.4 -146.755 0.344201
    endloop
  endfacet
  facet normal 0 -0.939694 -0.342018
    outer loop
      vertex 3 -146.928 44.1399
      vertex 3 -145.568 40.4012
      vertex 83.4 -146.928 44.1399
    endloop
  endfacet
  facet normal 0 -0.939694 -0.342018
    outer loop
      vertex 3 -145.568 40.4012
      vertex 83.4 -145.568 40.4012
      vertex 83.4 -146.928 44.1399
    endloop
  endfacet
  facet normal 0 1 0
    outer loop
      vertex 86.4 -173.505 15.3442
      vertex 86.4 -173.505 8.3442
      vertex 80.4 -173.505 15.3442
    endloop
  endfacet
  facet normal 0 1 0
    outer loop
      vertex 86.4 -173.505 8.3442
      vertex 80.4 -173.505 8.3442
      vertex 80.4 -173.505 15.3442
    endloop
  endfacet
  facet normal 1 0 0
    outer loop
      vertex 3 -203.679 23.5071
      vertex 3 -203.69 23.4921
      vertex 3 -202.325 19.7432
    endloop
  endfacet
  facet normal 1 0 0
    outer loop
      vertex 3 -146.95 44.1549
      vertex 3 -203.679 23.5071
      vertex 3 -146.928 44.1399
    endloop
  endfacet
  facet normal 1 0 0
    outer loop
      vertex 3 -203.679 23.5071
      vertex 3 -202.325 19.7432
      vertex 3 -146.928 44.1399
    endloop
  endfacet
  facet normal 1 0 0
    outer loop
      vertex 3 -146.928 44.1399
      vertex 3 -202.325 19.7432
      vertex 3 -145.568 40.4012
    endloop
  endfacet
  facet normal -0.577351 0.577349 -0.577351
    outer loop
      vertex 0 -146.755 0.344201
      vertex 3 -143.755 0.344201
      vertex 3 -146.755 -2.6558
    endloop
  endfacet
  facet normal 0 0 1
    outer loop
      vertex 86.4 -173.505 8.3442
      vertex 86.4 -163.505 8.3442
      vertex 80.4 -173.505 8.3442
    endloop
  endfacet
  facet normal 0 0 1
    outer loop
      vertex 86.4 -163.505 8.3442
      vertex 80.4 -163.505 8.3442
      vertex 80.4 -173.505 8.3442
    endloop
  endfacet
  facet normal -1 0 0
    outer loop
      vertex 83.4 -202.325 19.7432
      vertex 83.4 -203.69 23.4921
      vertex 83.4 -203.679 23.5071
    endloop
  endfacet
  facet normal -1 0 0
    outer loop
      vertex 83.4 -203.679 23.5071
      vertex 83.4 -146.95 44.1549
      vertex 83.4 -202.325 19.7432
    endloop
  endfacet
  facet normal -1 0 0
    outer loop
      vertex 83.4 -146.95 44.1549
      vertex 83.4 -146.928 44.1399
      vertex 83.4 -202.325 19.7432
    endloop
  endfacet
  facet normal -1 0 0
    outer loop
      vertex 83.4 -202.325 19.7432
      vertex 83.4 -146.928 44.1399
      vertex 83.4 -145.568 40.4012
    endloop
  endfacet
endsolid Onshape
